<?xml version="1.0" encoding="utf-8"?>
<!-- Generator: Adobe Illustrator 25.4.1, SVG Export Plug-In . SVG Version: 6.00 Build 0)  -->
<svg version="1.1" id="Capa_1" xmlns="http://www.w3.org/2000/svg" xmlns:xlink="http://www.w3.org/1999/xlink" x="0px" y="0px"
	 viewBox="0 0 1014.77 1016.77" style="enable-background:new 0 0 1014.77 1016.77;" xml:space="preserve">
<style type="text/css">
	.st0{fill:url(#SVGID_1_);}
	.st1{fill:#E43F5A;}
	.st2{fill:#FFFFFF;}
</style>
<g>
	<g>
		<g>
			<linearGradient id="SVGID_1_" gradientUnits="userSpaceOnUse" x1="6.16" y1="508.0439" x2="1007.9474" y2="508.0439">
				<stop  offset="0" style="stop-color:#E43F5A"/>
				<stop  offset="1" style="stop-color:#1F4068"/>
			</linearGradient>
			<path class="st0" d="M838.56,7.63L43.23,127.02c-23.77,3.57-40.15,25.73-36.58,49.5l119.4,795.36
				c3.57,23.77,25.73,40.15,49.5,36.58l795.34-119.4c23.77-3.57,40.15-25.73,36.58-49.5L888.06,44.2
				C884.49,20.43,862.33,4.06,838.56,7.63z M457.26,122.2l332.73-49c21.31-3.14,41.18,11.27,44.38,32.17l104.95,685.69
				c3.2,20.91-11.48,40.4-32.8,43.54L215.85,936.34c-21.31,3.14-41.18-11.27-44.38-32.17l-51.2-334.57
				C87.39,354.75,238.27,154.45,457.26,122.2z"/>
		</g>
	</g>
	<g>
		<path class="st1" d="M218.73,396.94c0,31.75,24.84,58.52,54.66,58.52c16,0,35.83-4.47,47.34-24.81c2.38-4.21-0.73-9.42-5.56-9.42
			l-31.57,0c-3.51,0-6.35-2.84-6.35-6.35v-18.5c0-3.51,2.84-6.35,6.35-6.35h79.78c3.51,0,6.35,2.84,6.35,6.35l0,0
			c0,53.28-42.79,96.62-96.34,96.62c-53,0-96.62-43.62-96.62-96.62s43.62-96.62,96.62-96.62c38.16,0,72.81,22.98,88.16,57.06
			c1.89,4.18-1.22,8.92-5.81,8.92l-32.34,0c-2.28,0-4.42-1.2-5.52-3.2c-9.59-17.48-27.29-24.13-44.49-24.13
			C243.57,338.41,218.73,365.19,218.73,396.94z"/>
		<path class="st1" d="M432.22,490.24h-31.13c-2.84,0-5.14-2.3-5.14-5.14V307.67c0-2.84,2.3-5.14,5.14-5.14h26.05h10.21h28.99
			c30.37,0,57.42,24.57,57.42,60.18c0,28.64-15.5,48.51-35.96,56.39c-3.25,1.25-4.41,5.24-2.27,7.98l42.8,54.87
			c2.63,3.37,0.23,8.3-4.05,8.3H485.1c-1.72,0-3.32-0.86-4.28-2.29l-43.19-64.79h-0.28v61.94
			C437.36,487.94,435.06,490.24,432.22,490.24z M437.36,340.24v45.21c0,2.84,2.3,5.14,5.14,5.14h16.94
			c12.15,0,24.84-9.94,24.84-27.88c0-17.12-12.7-27.61-24.84-27.61H442.5C439.66,335.1,437.36,337.4,437.36,340.24z"/>
		<path class="st1" d="M641.38,490.24h-29.59c-1.82,0-3.46-1.1-4.14-2.79l-72.3-178.79c-1.19-2.93,0.97-6.14,4.14-6.14h34.98
			c1.87,0,3.55,1.17,4.19,2.93l37.57,102.52l5.99,17.34c1.39,4.01,7.05,4.01,8.44,0l5.99-17.34l37.85-102.53
			c0.65-1.75,2.32-2.92,4.19-2.92h34.99c3.17,0,5.33,3.2,4.14,6.14l-72.3,178.79C644.84,489.14,643.2,490.24,641.38,490.24z"/>
	</g>
	<g>
		<path class="st2" d="M448.39,510.99c62.02,0,108.54,58.07,93.47,118.23c-10.18,40.64-45.58,69.47-90.34,69.47h-54.37
			c-0.77,0-1.39-0.62-1.39-1.39V512.38c0-0.77,0.62-1.39,1.39-1.39H448.39z M449.04,660.6c31.74,0,53.55-24.57,53.55-55.76
			c0-31.19-21.53-55.48-53.55-55.48h-11.03c-0.77,0-1.39,0.62-1.39,1.39v108.46c0,0.77,0.62,1.39,1.39,1.39H449.04z"/>
		<path class="st2" d="M676.19,698.69H574.67c-2,0-3.62-1.62-3.62-3.62V514.6c0-2,1.62-3.62,3.62-3.62h101.53
			c2,0,3.62,1.62,3.62,3.62v30.31c0,2-1.62,3.62-3.62,3.62h-60.12c-2,0-3.62,1.62-3.62,3.62v30.03c0,2,1.62,3.62,3.62,3.62h57.36
			c2,0,3.62,1.62,3.62,3.62v30.31c0,2-1.62,3.62-3.62,3.62h-57.36c-2,0-3.62,1.62-3.62,3.62v30.58c0,2,1.62,3.62,3.62,3.62h60.12
			c2,0,3.62,1.62,3.62,3.62v30.31C679.81,697.07,678.19,698.69,676.19,698.69z"/>
		<path class="st2" d="M806.28,698.69h-29.63c-1.81,0-3.44-1.1-4.11-2.77l-72.32-178.83c-1.18-2.92,0.97-6.1,4.11-6.1h35.04
			c1.86,0,3.53,1.16,4.17,2.91l37.58,102.54l6.02,17.41c1.38,3.98,7.01,3.98,8.39,0l6.02-17.41l37.85-102.55
			c0.64-1.74,2.3-2.9,4.16-2.9h35.05c3.15,0,5.29,3.18,4.11,6.1L810.4,695.92C809.72,697.59,808.09,698.69,806.28,698.69z"/>
	</g>
	<g>
		<g>
			<path class="st1" d="M248.69,817.5v-20.26l56.27-26.29v16.29l-43.95,20.12l43.95,20.12v16.29L248.69,817.5z"/>
			<path class="st1" d="M366.29,734.95h18.89L332.47,866.1h-18.76L366.29,734.95z"/>
			<path class="st1" d="M392.3,843.78v-16.29l43.81-20.12l-43.81-20.12v-16.29l56.27,26.29v20.26L392.3,843.78z"/>
		</g>
	</g>
</g>
</svg>
